<?xml version="1.0" encoding="UTF-8"?>
<svg version="1.1" xmlns="http://www.w3.org/2000/svg" width="1024" height="1024">
<path d="M0 0 C337.92 0 675.84 0 1024 0 C1024 337.92 1024 675.84 1024 1024 C686.08 1024 348.16 1024 0 1024 C0 686.08 0 348.16 0 0 Z " fill="#F0F1F1" transform="translate(0,0)"/>
<path d="M0 0 C1.71146411 -0.00389773 3.42292497 -0.00954194 5.13437825 -0.0167709 C9.81444843 -0.0314753 14.49418042 -0.02137427 19.17423952 -0.00703418 C24.23015935 0.00410005 29.2860327 -0.00787499 34.34194946 -0.01687622 C44.23659838 -0.03079308 54.13111948 -0.02326439 64.02576228 -0.00820064 C75.55031311 0.00867564 87.07483225 0.00544724 98.59939162 0.00170528 C119.16103888 -0.00417025 139.72262486 0.00998732 160.28425598 0.03465271 C180.23447465 0.05858194 200.18461147 0.06565292 220.13484192 0.05516052 C241.86624558 0.04375182 263.5976114 0.04181995 285.3290146 0.05625862 C287.64599216 0.05778445 289.96296972 0.0593048 292.27994728 0.06081963 C293.98990391 0.06195635 293.98990391 0.06195635 295.73440513 0.06311603 C303.76736169 0.06785848 311.80030136 0.06600776 319.83325768 0.06175423 C329.62051016 0.05682824 339.40768526 0.06280926 349.19492003 0.08264852 C354.18830677 0.09252106 359.18157568 0.09762594 364.17496872 0.08975601 C368.74619953 0.08269879 373.31719255 0.08950486 377.88839201 0.10735964 C379.54162211 0.11140377 381.1948739 0.11040485 382.84809592 0.10384078 C392.63358735 0.06831409 401.03295981 0.11020259 409.20149231 6.18870544 C409.813797 6.62569763 410.42610168 7.06268982 411.05696106 7.51292419 C416.46190254 13.00417213 419.35168497 20.18563661 422.15852356 27.23948669 C422.71874458 28.61985359 422.71874458 28.61985359 423.2902832 30.02810669 C424.4760985 32.95383679 425.65166804 35.88354695 426.82649231 38.81370544 C427.98843178 41.6929356 429.15252494 44.57128627 430.31718445 47.44941711 C431.08339967 49.3436866 431.84832323 51.23847909 432.61192322 53.13380432 C435.53266847 60.36824631 438.54541121 67.5610474 441.63699341 74.72418213 C444.01399231 80.28654816 444.01399231 80.28654816 444.01399231 82.50120544 C444.72063522 82.492323 445.42727814 82.48344055 446.15533447 82.47428894 C452.84829836 82.39379855 459.54112515 82.33306747 466.2344656 82.29395676 C469.6747768 82.27317267 473.11468466 82.24502655 476.55476379 82.19944763 C480.51898703 82.14725898 484.48305279 82.12818423 488.44758606 82.11058044 C489.66981369 82.0899353 490.89204132 82.06929016 492.15130615 82.04801941 C499.13416355 82.04620153 505.07903932 82.53417137 511.01399231 86.50120544 C514.9534974 91.32709919 516.1325521 95.079582 516.19099426 101.20677185 C516.2038295 102.37874115 516.21666473 103.55071045 516.22988892 104.75819397 C516.24096931 106.66125809 516.24096931 106.66125809 516.25227356 108.60276794 C516.26034531 109.90894073 516.26841705 111.21511353 516.2767334 112.56086731 C516.29175196 115.32987843 516.30159219 118.09886401 516.30915833 120.86790466 C516.32018307 124.39501508 516.35453948 127.92148769 516.39433002 131.44837379 C516.42695925 134.83314471 516.43128977 138.21785202 516.43977356 141.60276794 C516.45728165 142.85933197 516.47478973 144.115896 516.49282837 145.41053772 C516.47387563 153.12544388 515.89748657 160.04926373 510.63723755 166.07948303 C505.54773761 170.69672606 500.13619399 171.75465288 493.45783997 171.72825623 C491.53652756 171.72802963 491.53652756 171.72802963 489.57640076 171.72779846 C488.19361716 171.71758754 486.81083519 171.70715559 485.42805481 171.69651794 C484.00173644 171.6927838 482.57541549 171.68993872 481.14909363 171.6879425 C477.41066804 171.68033763 473.67239998 171.66071653 469.93403625 171.63853455 C466.11305369 171.61800802 462.29204547 171.60892628 458.47102356 171.59886169 C450.98527498 171.57746736 443.49965579 171.54336985 436.01399231 171.50120544 C435.89105301 172.23522079 435.76811371 172.96923615 435.64144897 173.72549438 C435.47249619 174.69972855 435.3035434 175.67396271 435.12947083 176.67771912 C434.96528152 177.63860947 434.80109222 178.59949982 434.63192749 179.58950806 C433.64380505 184.24551989 431.86998088 188.47337059 429.95149231 192.81370544 C429.55446106 193.72233337 429.15742981 194.6309613 428.74836731 195.56712341 C418.0973155 219.29259332 399.33007259 239.78993926 378.01399231 254.50120544 C377.06967346 255.15548523 377.06967346 255.15548523 376.10627747 255.82298279 C337.17177102 282.50120544 337.17177102 282.50120544 324.01399231 282.50120544 C330.04454862 297.37816991 336.44024606 312.07992412 342.95149231 326.75120544 C350.54853968 343.86916743 358.02463386 361.03564016 365.42951965 378.23753357 C369.16588161 386.91536687 372.91249613 395.5870368 376.73738098 404.2263031 C378.42496653 408.03836964 380.0956617 411.85774149 381.766922 415.67698669 C382.64615128 417.66816217 383.53581507 419.65474618 384.43293762 421.63792419 C385.87736835 424.83320925 387.29122621 428.0407218 388.70149231 431.25120544 C389.35420105 432.66224548 389.35420105 432.66224548 390.02009583 434.10179138 C393.25595999 441.58394098 395.02173815 450.12616661 392.07478333 458.01560974 C388.86718095 464.01962127 383.33458938 467.39433975 377.01399231 469.50120544 C369.72204573 470.31736827 363.36701706 469.25376929 357.01399231 465.50120544 C351.40462201 460.51772278 348.11434561 454.23148946 345.76399231 447.18870544 C343.67063296 441.16714467 341.29565599 435.35121308 338.688797 429.53514099 C336.4943512 424.63889663 334.41690733 419.69993632 332.36116028 414.74388123 C330.03866164 409.15355377 327.68206324 403.57765908 325.32649231 398.00120544 C324.84116028 396.84878357 324.35582825 395.69636169 323.85578918 394.50901794 C323.38850403 393.40300232 322.92121887 392.29698669 322.43977356 391.15745544 C322.02123108 390.16552185 321.6026886 389.17358826 321.17146301 388.15159607 C320.07664382 385.55212637 320.07664382 385.55212637 318.86238098 383.33518982 C318.01399231 381.50120544 318.01399231 381.50120544 318.01399231 378.50120544 C233.53399231 378.50120544 149.05399231 378.50120544 62.01399231 378.50120544 C61.68399231 380.15120544 61.35399231 381.80120544 61.01399231 383.50120544 C60.13487375 385.77812252 59.20080862 388.03409649 58.23274231 390.27464294 C57.94733582 390.93901871 57.66192932 391.60339447 57.36787415 392.28790283 C56.42178582 394.48629252 55.46840898 396.68141974 54.51399231 398.87620544 C53.84583488 400.41819727 53.17786969 401.9602724 52.51008606 403.50242615 C51.45496242 405.93833636 50.39915927 408.37393933 49.34114075 410.80859375 C47.07194449 416.03549308 44.8335085 421.2744178 42.61738586 426.52403259 C41.12320609 430.05878451 39.61675139 433.58823299 38.10847473 437.11698914 C37.3847362 438.81756482 36.66605734 440.52030363 35.95271301 442.2252655 C27.31357857 462.84756802 27.31357857 462.84756802 17.76399231 468.00120544 C10.62980943 470.7022628 3.72786133 470.59078457 -3.29850769 467.62620544 C-8.79578781 464.51371032 -11.77757754 460.37030191 -13.98600769 454.50120544 C-15.59971379 447.11584979 -13.02058922 441.18390467 -9.9283905 434.55882263 C-8.32682537 431.06193379 -6.82436179 427.52209956 -5.30192566 423.99021912 C-2.4286643 417.32734459 0.46626254 410.67700664 3.48664856 404.07933044 C6.24563666 398.03457975 8.85027259 391.92764958 11.45149231 385.81370544 C15.90002771 375.39500561 20.40179776 365.0011184 24.95149231 354.62620544 C30.12123153 342.8356097 35.26220449 331.03306008 40.37409973 319.2172699 C42.913601 313.34784219 45.45676065 307.48012118 48.01399231 301.61839294 C48.47966614 300.55048523 48.94533997 299.48257751 49.42512512 298.38230896 C50.29319439 296.39274612 51.16227303 294.40362326 52.032547 292.4150238 C52.4131427 291.54240906 52.7937384 290.66979431 53.18586731 289.77073669 C53.51683411 289.01381531 53.8478009 288.25689392 54.188797 287.47703552 C54.86964543 285.84682655 55.45532104 284.17721925 56.01399231 282.50120544 C55.33981262 282.40194763 54.66563293 282.30268982 53.97102356 282.20042419 C17.21990225 273.51026473 -21.8761416 240.46857594 -41.80241394 209.08714294 C-48.95761679 197.48961036 -54.17166685 185.05979374 -55.98600769 171.50120544 C-56.79509583 171.51008789 -57.60418396 171.51897034 -58.43778992 171.52812195 C-66.08765934 171.60849294 -73.73732211 171.66928348 -81.38750458 171.70845413 C-85.31993724 171.72926971 -89.25201908 171.75747552 -93.18424988 171.80296326 C-96.98386043 171.84663844 -100.78313496 171.87038784 -104.58297729 171.88071442 C-106.02778406 171.88806719 -107.47257383 171.90242513 -108.91723633 171.92412567 C-124.5971922 172.15014685 -124.5971922 172.15014685 -129.98600769 167.50120544 C-134.81129103 162.77759355 -136.33907522 158.29548158 -136.7306366 151.6078949 C-136.75659311 148.93818293 -136.75113978 146.28266314 -136.71257019 143.61448669 C-136.71153065 142.18440758 -136.71257507 140.75432558 -136.71559143 139.32424927 C-136.715413 136.34267417 -136.69476153 133.36219213 -136.65837097 130.38084412 C-136.61287169 126.5709428 -136.61194016 122.76262575 -136.62540627 118.95252705 C-136.6321053 116.00549374 -136.61879199 113.05881798 -136.5991478 110.11185265 C-136.59148607 108.70733195 -136.58912974 107.30277138 -136.59231949 105.89823341 C-136.59306584 103.93417466 -136.56476056 101.97017069 -136.5353241 100.0063324 C-136.52610931 98.89208389 -136.51689453 97.77783539 -136.50740051 96.62982178 C-135.67500826 91.63505416 -133.11920443 88.52384641 -129.42350769 85.18870544 C-125.61432073 82.55157601 -122.66071697 82.36225988 -118.13761902 82.29588318 C-116.93660049 82.27593796 -115.73558197 82.25599274 -114.49816895 82.23544312 C-113.20122604 82.21873062 -111.90428314 82.20201813 -110.56803894 82.18479919 C-109.22710539 82.16422251 -107.88617823 82.14322585 -106.54525757 82.12182617 C-103.0189888 82.06667917 -99.49266221 82.0172375 -95.96629333 81.96897888 C-92.36669276 81.91870994 -88.76717596 81.86305205 -85.16764832 81.80784607 C-78.10717417 81.70035473 -71.04662487 81.59888979 -63.98600769 81.50120544 C-63.62597656 80.61036758 -63.26594543 79.71952972 -62.89500427 78.80169678 C-60.22210703 72.19078396 -57.54320441 65.58246003 -54.84538269 58.98167419 C-52.55483141 53.3754019 -50.28707836 47.76085255 -48.04605103 42.13459778 C-46.75068992 38.89248109 -45.43968657 35.65682696 -44.12568665 32.42222595 C-43.49703611 30.86507626 -42.87488442 29.30528511 -42.25965881 27.74278259 C-34.50710527 8.08052827 -34.50710527 8.08052827 -25.76302737 3.28104824 C-17.22885367 -0.09332893 -9.01310695 -0.05702214 0 0 Z " fill="#020101" transform="translate(323.9860076904297,393.49879455566406)"/>
<path d="M0 0 C1.27632008 -0.00905664 2.55264017 -0.01811328 3.86763662 -0.02744436 C5.28696508 -0.02233985 6.70629253 -0.01694774 8.12561893 -0.01129913 C9.63106447 -0.01618637 11.13650624 -0.0223754 12.64194161 -0.02975702 C16.78488172 -0.0462009 20.92763209 -0.04382963 25.07059348 -0.03838205 C29.53626045 -0.03571733 34.00187622 -0.0502331 38.46752262 -0.06247711 C47.21841113 -0.08355661 55.96923343 -0.08807054 64.72014432 -0.08628923 C71.83099903 -0.08498292 78.94183302 -0.088779 86.05268383 -0.09621429 C88.09894452 -0.09831343 90.14520522 -0.10041103 92.19146591 -0.10250711 C93.20986221 -0.10355064 94.22825851 -0.10459417 95.2775153 -0.10566932 C114.54846474 -0.12458168 133.81937614 -0.12351837 153.09033103 -0.11669999 C170.73067604 -0.11112316 188.37087587 -0.13195417 206.01118695 -0.16506046 C224.1130189 -0.19876995 242.21478126 -0.21396926 260.31664521 -0.20934343 C270.48399509 -0.20709605 280.65121077 -0.21238124 290.8185339 -0.23723602 C299.47374061 -0.25821372 308.12873953 -0.2618763 316.78395467 -0.24293643 C321.2018474 -0.23375689 325.61935235 -0.23270299 330.03721523 -0.25329208 C334.07950273 -0.27192288 338.12108271 -0.26758839 342.1633426 -0.24474627 C343.62763707 -0.2405404 345.09198495 -0.24482694 346.55622309 -0.25834221 C348.54309369 -0.27543624 350.53016932 -0.25884904 352.51702881 -0.24050903 C354.17410352 -0.24091761 354.17410352 -0.24091761 355.86465448 -0.24133444 C360.34452009 0.70477143 362.51859102 3.53571508 365.08486271 7.17461395 C365.38851749 7.73068329 365.69217228 8.28675262 366.00502872 8.85967255 C366.36814152 9.51693329 366.73125431 10.17419403 367.10537052 10.85137177 C367.48604679 11.5630954 367.86672306 12.27481903 368.25893497 13.00811005 C368.88312321 14.15110565 368.88312321 14.15110565 369.5199213 15.31719208 C374.05660642 23.6874295 378.40627804 32.16027403 382.73525333 40.6394577 C386.06736809 47.13633609 389.56443748 53.47723398 393.33437443 59.73125458 C399.74040607 71.15504635 396.82143497 75.50061763 396.82143497 92.38311005 C251.62143497 92.38311005 106.42143497 92.38311005 -43.17856503 92.38311005 C-43.17856503 62.81285965 -43.17856503 62.81285965 -37.84653378 54.7463913 C-34.99310767 50.1987091 -32.59699084 45.45121539 -30.16489315 40.66802216 C-25.25052932 31.01071028 -20.19951094 21.41900018 -15.05356503 11.88311005 C-14.61681454 11.05907684 -14.18006405 10.23504364 -13.7300787 9.38603973 C-13.31862606 8.63226044 -12.90717342 7.87848114 -12.48325253 7.10186005 C-12.13246639 6.45152802 -11.78168026 5.80119598 -11.42026424 5.13115692 C-8.2776209 0.70698737 -5.28733694 0.00752111 0 0 Z " fill="#EFF0EF" transform="translate(337.1785650253296,425.6168899536133)"/>
<path d="M0 0 C7.11860754 0.53271763 13.86995738 1.74810441 20.8125 3.375 C28.59266252 5.13181089 36.35045513 6.64071139 44.25 7.75 C45.06960205 7.86520996 45.8892041 7.98041992 46.73364258 8.09912109 C57.20990596 9.50389036 67.56617665 10.16434734 78.13671875 10.203125 C79.37380081 10.20882507 80.61088287 10.21452515 81.88545227 10.22039795 C84.49662434 10.22979911 87.10780802 10.23636237 89.71899414 10.24023438 C93.631245 10.24986157 97.54295188 10.28090082 101.45507812 10.3125 C128.34630662 10.42581052 154.04008925 6.53978336 180.1875 0.515625 C182.86587705 0.02458921 185.28499037 -0.09981653 188 0 C192.90756665 11.37320495 197.76983845 22.76536471 202.5625 34.1875 C203.22451416 35.75467773 203.22451416 35.75467773 203.89990234 37.35351562 C204.30547363 38.32353516 204.71104492 39.29355469 205.12890625 40.29296875 C205.67140015 41.58497192 205.67140015 41.58497192 206.22485352 42.90307617 C207 45 207 45 207 47 C132.42 47 57.84 47 -19 47 C-17.11709973 41.35129918 -15.26857882 36.0309494 -12.96875 30.5859375 C-12.69156128 29.92719635 -12.41437256 29.2684552 -12.12878418 28.5897522 C-11.25564647 26.51683378 -10.37790411 24.44590357 -9.5 22.375 C-8.91245765 20.98189849 -8.325216 19.58867011 -7.73828125 18.1953125 C-5.1776672 12.12210051 -2.59968925 6.05657856 0 0 Z " fill="#EDEFEE" transform="translate(420,691)"/>
<path d="M0 0 C11.88786819 5.4841361 11.88786819 5.4841361 14 10 C13.21484375 13.26953125 13.21484375 13.26953125 12 17 C10.5166124 32.03686583 14.94955658 41.917274 22.75366211 54.47998047 C25.97647477 59.73907734 28.28305345 65.06222653 30 71 C30.19078125 71.59296875 30.3815625 72.1859375 30.578125 72.796875 C33.24069443 86.70140424 30.36713075 101.03077986 23 113 C21.04166036 115.5740448 19.00168696 118.06047182 16.93359375 120.546875 C11.66529598 127.2306952 8.59955616 133.8348239 8.6328125 142.46484375 C9.46098067 148.18272821 11.89595047 153.64970263 14 159 C11.87706098 160.81496336 9.75177875 162.62704594 7.625 164.4375 C6.72007812 165.2119043 6.72007812 165.2119043 5.796875 166.00195312 C0.06613905 170.87307868 0.06613905 170.87307868 -3.625 171.3125 C-10.84344158 170.64412578 -17.19771182 166.31420723 -22 161 C-28.40244912 151.29931951 -28.1533272 138.8099322 -26.50390625 127.640625 C-24.36219604 118.29938049 -20.24585894 110.73912007 -14.875 102.875 C-8.56414979 93.49207553 -6.85712606 86.4806882 -8 75 C-9.43605977 69.0848014 -12.45214057 64.17953922 -15.5625 59 C-24.2906477 44.20335476 -22.59468235 28.89276151 -20.92578125 12.35546875 C-19.26183853 6.324554 -14.2407148 2.95265393 -9.02734375 -0.10546875 C-5.54505356 -1.64197059 -3.5977988 -1.15861317 0 0 Z " fill="#040303" transform="translate(516,191)"/>
<path d="M0 0 C4.41094054 1.98390061 8.4689245 4.51865706 12.52734375 7.13671875 C12.38296875 7.86375 12.23859375 8.59078125 12.08984375 9.33984375 C8.74856763 27.43842272 12.59327167 38.45220959 21.6640625 53.9375 C29.56928871 67.51062425 31.41638049 80.47968821 28.91015625 95.9453125 C26.75203577 103.89980081 22.6760607 109.79754702 17.52734375 116.13671875 C10.95283809 124.47619237 7.28683414 131.20767202 8.52734375 142.13671875 C9.19876262 144.46201969 9.19876262 144.46201969 10.08984375 146.57421875 C11.81857661 150.85846976 11.81857661 150.85846976 10.52734375 154.13671875 C8.60373286 156.37496133 6.27067395 158.11552338 3.96484375 159.94921875 C3.07055664 160.72168945 3.07055664 160.72168945 2.15820312 161.50976562 C-1.11265775 164.12855777 -3.3452653 165.54271925 -7.61328125 165.12109375 C-14.59933013 163.33922703 -20.50860538 160.21878193 -24.53515625 154.07421875 C-29.74166345 145.01378451 -28.77250353 129.97874596 -26.34765625 120.13671875 C-23.88256439 112.66043076 -19.81396299 106.00796187 -15.34765625 99.57421875 C-10.22400498 91.99660818 -7.05855287 84.3861092 -8.47265625 75.13671875 C-10.20769385 68.8106547 -13.2783614 63.82122813 -17.015625 58.50390625 C-25.24278051 45.13753563 -25.08913419 27.79831449 -22.59765625 12.76171875 C-21.03149855 6.92834878 -18.03652992 4.43947908 -12.9453125 1.40625 C-12.12933594 0.98730469 -11.31335938 0.56835938 -10.47265625 0.13671875 C-9.79332031 -0.27191406 -9.11398437 -0.68054688 -8.4140625 -1.1015625 C-5.22629986 -2.35229432 -3.09416403 -1.13778744 0 0 Z " fill="#030203" transform="translate(581.47265625,206.86328125)"/>
<path d="M0 0 C1.04414063 0.53367188 2.08828125 1.06734375 3.1640625 1.6171875 C4.22367187 2.15601563 5.28328125 2.69484375 6.375 3.25 C7.17164063 3.65992188 7.96828125 4.06984375 8.7890625 4.4921875 C8.55316406 5.92498047 8.55316406 5.92498047 8.3125 7.38671875 C5.82024847 25.04090618 8.66989903 37.57022806 18.54272461 52.26513672 C25.91520447 63.4740453 27.78892599 76.28272341 26.7890625 89.4921875 C24.20705902 101.67924394 17.23356795 111.17086925 9.7421875 120.828125 C4.87056372 127.47301983 5.1885242 133.38056878 5.7890625 141.4921875 C6.53143589 144.94229274 7.51574149 148.20277488 8.7890625 151.4921875 C6.61145893 153.20563067 4.42766721 154.90935509 2.23046875 156.59765625 C0.758546 157.73986831 -0.69771228 158.90330812 -2.12109375 160.10546875 C-5.08151463 162.49943097 -6.8021273 163.48475459 -10.6484375 163.5546875 C-19.14586585 161.02036677 -24.70308699 157.36348338 -29.3125 149.6484375 C-34.21903372 137.87275657 -31.32572312 123.11253516 -27.2109375 111.4921875 C-25.17870041 107.58025411 -22.77260539 104.07188323 -20.2109375 100.4921875 C-19.08723652 98.73368506 -17.98223897 96.96305765 -16.8984375 95.1796875 C-16.42792969 94.42042969 -15.95742188 93.66117187 -15.47265625 92.87890625 C-11.8201046 85.96959028 -11.00572231 79.16835673 -12.2109375 71.4921875 C-13.99031026 66.50726436 -16.60175122 61.90051334 -19.19335938 57.30029297 C-20.57109015 54.85224255 -21.86973257 52.36818392 -23.1484375 49.8671875 C-23.71884766 48.79597656 -23.71884766 48.79597656 -24.30078125 47.703125 C-28.79394933 36.78839053 -27.54652089 19.35080971 -24.52734375 8.10546875 C-22.08435929 3.25574589 -17.91796789 0.90890927 -13.2109375 -1.5078125 C-12.57027344 -1.93707031 -11.92960937 -2.36632812 -11.26953125 -2.80859375 C-7.23676452 -4.17835702 -3.6508536 -1.71439111 0 0 Z " fill="#040303" transform="translate(456.2109375,208.5078125)"/>
<path d="M0 0 C6.27963318 -0.25436226 12.55793264 -0.42898665 18.84155273 -0.54931641 C20.97682319 -0.59948952 23.11175202 -0.66764925 25.24584961 -0.75439453 C42.92408958 -1.45476759 42.92408958 -1.45476759 47.79785156 1.96069336 C49.63880462 4.56871019 50.81592731 7.0420504 52 10 C52.91961691 11.48443989 53.86949137 12.9506499 54.8515625 14.39453125 C55.7788255 15.86543624 56.70322872 17.3381473 57.625 18.8125 C58.12717041 19.61147705 58.62934082 20.4104541 59.14672852 21.23364258 C64.66241102 30.02455386 70.12906827 38.84669171 75.56201172 47.68896484 C76.52136014 49.23076318 77.49707988 50.76249348 78.48876953 52.28369141 C78.94751465 52.99058105 79.40625977 53.6974707 79.87890625 54.42578125 C80.28826416 55.04493408 80.69762207 55.66408691 81.11938477 56.30200195 C82 58 82 58 82 61 C74.70474902 61.20309039 67.41022815 61.34304098 60.11279297 61.43945312 C57.63139608 61.47964819 55.15018824 61.53421532 52.66943359 61.60351562 C49.09946069 61.70073555 45.53199398 61.74596791 41.9609375 61.78125 C40.30123428 61.84318542 40.30123428 61.84318542 38.60800171 61.90637207 C31.08365876 61.91074114 31.08365876 61.91074114 28.01768494 59.33399963 C26.44874107 57.29375258 25.19656499 55.27572872 24 53 C23.49960205 52.15429443 22.9992041 51.30858887 22.48364258 50.43725586 C22.12423584 49.70385986 21.7648291 48.97046387 21.39453125 48.21484375 C20.97357178 47.36519043 20.5526123 46.51553711 20.11889648 45.64013672 C19.68778564 44.7482666 19.2566748 43.85639648 18.8125 42.9375 C18.34980713 41.99664551 17.88711426 41.05579102 17.41040039 40.08642578 C12.54939785 30.16791731 7.7924691 20.19774987 3.06225586 10.21630859 C2.37186476 8.77586493 1.63981955 7.35440957 0.86157227 5.95947266 C0 4 0 4 0 0 Z " fill="#030203" transform="translate(637,441)"/>
<path d="M0 0 C2.03960509 0.05019271 4.07932812 0.09581451 6.11914062 0.13671875 C11.10318058 0.246607 16.08154631 0.41895278 21.0625 0.625 C20.56558556 4.76365026 19.99861767 8.36837991 18.2421875 12.15625 C17.87536865 12.95893311 17.5085498 13.76161621 17.13061523 14.58862305 C16.73688721 15.42562744 16.34315918 16.26263184 15.9375 17.125 C15.53152588 18.00647705 15.12555176 18.8879541 14.70727539 19.79614258 C13.50102031 22.40989278 12.28287226 25.01781781 11.0625 27.625 C10.43813476 28.97234721 9.81437176 30.31997378 9.19140625 31.66796875 C7.79763939 34.677157 6.38808174 37.67872095 4.97460938 40.67871094 C3.94865621 42.86792363 2.93502786 45.06264796 1.921875 47.2578125 C1.19797628 48.817736 0.47401901 50.37763233 -0.25 51.9375 C-0.75672241 53.04194458 -0.75672241 53.04194458 -1.27368164 54.16870117 C-3.71139493 59.39889493 -3.71139493 59.39889493 -5.9375 61.625 C-8.11416626 61.86550903 -8.11416626 61.86550903 -10.84619141 61.85205078 C-11.86709869 61.85189972 -12.88800598 61.85174866 -13.93984985 61.85159302 C-15.59771011 61.83610916 -15.59771011 61.83610916 -17.2890625 61.8203125 C-18.4182309 61.8174826 -19.54739929 61.81465271 -20.71078491 61.81173706 C-24.32812971 61.80051462 -27.94522966 61.77540622 -31.5625 61.75 C-34.0104131 61.73997287 -36.45833007 61.73084656 -38.90625 61.72265625 C-44.91675064 61.70056857 -50.92710783 61.66707074 -56.9375 61.625 C-57.10136937 57.01400517 -56.23738976 54.95470977 -53.6875 51.0625 C-52.95143074 49.91645098 -52.21717736 48.76923443 -51.484375 47.62109375 C-51.07896484 46.99058105 -50.67355469 46.36006836 -50.25585938 45.71044922 C-47.73895784 41.72908386 -45.34899184 37.67073226 -42.9375 33.625 C-35.98950735 22.02693829 -35.98950735 22.02693829 -32.625 16.5 C-32.07199219 15.58992188 -31.51898438 14.67984375 -30.94921875 13.7421875 C-30.28535156 12.71351563 -29.62148438 11.68484375 -28.9375 10.625 C-28.60242432 9.7779248 -28.26734863 8.93084961 -27.92211914 8.05810547 C-22.4631173 -3.15739151 -10.72054303 -0.45663327 0 0 Z " fill="#030203" transform="translate(365.9375,440.375)"/>
<path d="M0 0 C9.24 0 18.48 0 28 0 C35.33384623 12.89745372 42.38914177 25.93347741 49.39208984 39.01318359 C50.805311 41.63835026 52.23451253 44.2534463 53.67578125 46.86328125 C54.05532959 47.55607178 54.43487793 48.2488623 54.82592773 48.96264648 C55.79288687 50.72531601 56.76719981 52.4839461 57.7421875 54.2421875 C59 57 59 57 59 61 C44.81 61 30.62 61 16 61 C15.0925 57.803125 14.185 54.60625 13.25 51.3125 C11.54274689 45.31206828 9.81739834 39.32414331 7.9375 33.375 C5.95838804 27.06346228 4.30073853 20.67571538 2.66186523 14.26904297 C2.35937866 13.09365967 2.35937866 13.09365967 2.05078125 11.89453125 C1.87200439 11.19175049 1.69322754 10.48896973 1.5090332 9.76489258 C1.03363107 7.91573749 1.03363107 7.91573749 0 6 C0 4.02 0 2.04 0 0 Z " fill="#040404" transform="translate(587,441)"/>
<path d="M0 0 C1.5631897 0.00785522 1.5631897 0.00785522 3.15795898 0.01586914 C4.28266602 0.0190918 5.40737305 0.02231445 6.56616211 0.02563477 C7.75016602 0.03401367 8.93416992 0.04239258 10.15405273 0.05102539 C11.34192383 0.05553711 12.52979492 0.06004883 13.75366211 0.06469727 C16.69967499 0.07652864 19.64558954 0.09301252 22.59155273 0.11352539 C22.8176282 6.03138315 22.11672181 10.8270049 20.46655273 16.48852539 C17.92366725 25.64421194 15.75357932 34.86363114 13.64770508 44.12866211 C13.40874512 45.17940918 13.16978516 46.23015625 12.92358398 47.31274414 C12.60997925 48.7023938 12.60997925 48.7023938 12.29003906 50.12011719 C11.43261612 53.79465851 10.50670068 57.4529336 9.59155273 61.11352539 C-4.26844727 61.11352539 -18.12844727 61.11352539 -32.40844727 61.11352539 C-31.65946013 56.61960258 -31.27368016 54.3435125 -29.37060547 50.55200195 C-28.94959061 49.70381897 -28.52857574 48.85563599 -28.09480286 47.98175049 C-27.40894356 46.63158844 -27.40894356 46.63158844 -26.70922852 45.25415039 C-26.23656052 44.30973083 -25.76389252 43.36531128 -25.27690125 42.39227295 C-24.2761173 40.39673642 -23.27145398 38.40314134 -22.26318359 36.41137695 C-20.73541235 33.39211209 -19.22035385 30.36673792 -17.70727539 27.34008789 C-16.72950992 25.39439824 -15.75101707 23.44907391 -14.77172852 21.50415039 C-14.32461014 20.61213928 -13.87749176 19.72012817 -13.41682434 18.80108643 C-3.97193363 0.18722242 -3.97193363 0.18722242 0 0 Z " fill="#040304" transform="translate(412.408447265625,440.886474609375)"/>
<path d="M0 0 C8.25 0 16.5 0 25 0 C26.625 8.9375 26.625 8.9375 27.18896484 12.05249023 C28.17506266 17.49539963 29.17211622 22.93606212 30.1869812 28.37367249 C30.7406228 31.34363259 31.29002476 34.31437031 31.83905029 37.28518677 C32.11192009 38.75581841 32.38668542 40.22609967 32.66339111 41.6960144 C33.05656816 43.78604369 33.44299529 45.87722498 33.828125 47.96875 C34.0540332 49.17982422 34.27994141 50.39089844 34.51269531 51.63867188 C35 55 35 55 35 61 C21.47 61 7.94 61 -6 61 C-6 49.74778475 -6 49.74778475 -5.55688477 45.3984375 C-5.41157066 43.93772827 -5.41157066 43.93772827 -5.26332092 42.44750977 C-5.15708908 41.43358154 -5.05085724 40.41965332 -4.94140625 39.375 C-4.8327977 38.30628662 -4.72418915 37.23757324 -4.61228943 36.13647461 C-4.38353883 33.89753526 -4.15230961 31.65884786 -3.91870117 29.42041016 C-3.56070481 25.98276172 -3.2124374 22.54422233 -2.86523438 19.10546875 C-2.64119884 16.92442015 -2.41660946 14.74342835 -2.19140625 12.5625 C-2.03509483 11.01731689 -2.03509483 11.01731689 -1.87562561 9.44091797 C-1.77559738 8.4923291 -1.67556915 7.54374023 -1.57250977 6.56640625 C-1.48590591 5.73052979 -1.39930206 4.89465332 -1.31007385 4.03344727 C-1 2 -1 2 0 0 Z " fill="#060505" transform="translate(498,441)"/>
<path d="M0 0 C5.59255179 1.91456728 8.47222538 7.54555641 11.35546875 12.3671875 C15.60888444 19.234115 20.49745134 24.96839907 26.16796875 30.7421875 C26.99039063 31.58136719 27.8128125 32.42054688 28.66015625 33.28515625 C35.80396118 40.28430469 43.42556503 45.79640617 52.12841797 50.64746094 C55.56878437 52.60120447 58.24246289 54.22363722 60.16796875 57.7421875 C60.67840795 63.10179906 60.62741205 66.38585149 57.16796875 70.7421875 C53.05700678 73.48282881 49.99530931 73.56930193 45.16796875 72.7421875 C41.52168638 71.18300278 38.40813177 69.01256746 35.16796875 66.7421875 C34.06025483 65.99556085 32.952162 65.24949616 31.84375 64.50390625 C14.76941928 52.83569607 0.75104108 38.55272386 -9.83203125 20.7421875 C-10.321875 19.94296875 -10.81171875 19.14375 -11.31640625 18.3203125 C-13.15000121 15.08012414 -13.83112821 12.79546706 -13.89453125 9.0546875 C-12.6295924 5.11105461 -10.99412777 3.36441388 -7.83203125 0.7421875 C-5.16969703 -0.58897961 -2.90655648 -0.19114685 0 0 Z " fill="#F7F8F8" transform="translate(324.83203125,562.2578125)"/>
<path d="M0 0 C8.25 0 16.5 0 25 0 C28.57714469 9.53905251 32.12534076 19.02043563 35.07373047 28.77270508 C36.26697712 32.70394785 37.53231473 36.60121596 38.86328125 40.48828125 C39.18554688 41.43268066 39.5078125 42.37708008 39.83984375 43.35009766 C40.47561767 45.20475743 41.11730224 47.05740434 41.765625 48.90771484 C42.05566406 49.75672363 42.34570312 50.60573242 42.64453125 51.48046875 C43.03668823 52.60811646 43.03668823 52.60811646 43.43676758 53.75854492 C44 56 44 56 44 61 C32.12 61 20.24 61 8 61 C6.6859266 57.0577798 5.74119613 54.18560803 5.22216797 50.23901367 C5.10219452 49.34756149 4.98222107 48.45610931 4.85861206 47.53764343 C4.73769196 46.59065079 4.61677185 45.64365814 4.4921875 44.66796875 C4.36184113 43.67678543 4.23149475 42.68560211 4.09719849 41.66438293 C3.82374449 39.57277962 3.55328815 37.48078248 3.28564453 35.38842773 C2.87757997 32.20761058 2.45705484 29.02861768 2.03515625 25.84960938 C1.77008062 23.80999352 1.50573395 21.77028276 1.2421875 19.73046875 C1.11721893 18.7895488 0.99225037 17.84862885 0.86349487 16.87919617 C0.74982574 15.97828751 0.63615662 15.07737885 0.51904297 14.14916992 C0.41848602 13.3700676 0.31792908 12.59096527 0.21432495 11.78825378 C-0.08687935 7.86974576 0 3.93006732 0 0 Z " fill="#050404" transform="translate(542,441)"/>
<path d="M0 0 C2.32250977 -0.35644531 2.32250977 -0.35644531 5.19140625 -0.328125 C6.73151367 -0.32039063 6.73151367 -0.32039063 8.30273438 -0.3125 C9.37845703 -0.291875 10.45417969 -0.27125 11.5625 -0.25 C13.18188477 -0.24226563 13.18188477 -0.24226563 14.83398438 -0.234375 C22.8462004 -0.1537996 22.8462004 -0.1537996 24 1 C24.57528449 10.4691057 23.59719947 19.90366569 22.625 29.3125 C22.43550781 31.24125977 22.43550781 31.24125977 22.2421875 33.20898438 C21.31275299 42.49868226 20.15864346 51.73085232 19 61 C7.12 61 -4.76 61 -17 61 C-15.87598692 49.75986921 -15.87598692 49.75986921 -14.36328125 45.109375 C-14.03602051 44.08013916 -13.70875977 43.05090332 -13.37158203 41.99047852 C-13.02208496 40.92112061 -12.67258789 39.8517627 -12.3125 38.75 C-9.25389351 29.14718969 -6.42170661 19.52557414 -3.90356445 9.76660156 C-3.68015381 8.91678711 -3.45674316 8.06697266 -3.2265625 7.19140625 C-3.03658691 6.45092041 -2.84661133 5.71043457 -2.65087891 4.94750977 C-2 3 -2 3 0 0 Z " fill="#050404" transform="translate(456,441)"/>
<path d="M0 0 C14.19 0 28.38 0 43 0 C43 8.25 43 16.5 43 25 C28.81 25 14.62 25 0 25 C0 16.75 0 8.5 0 0 Z " fill="#E3E4E4" transform="translate(767,508)"/>
<path d="M0 0 C13.86 0 27.72 0 42 0 C42 8.25 42 16.5 42 25 C28.14 25 14.28 25 0 25 C0 16.75 0 8.5 0 0 Z " fill="#E5E7E6" transform="translate(218,508)"/>
<path d="M0 0 C3.74526566 1.80327606 5.54125416 3.32717277 7.875 6.75 C9.23767339 10.68661201 9.73932875 13.88440332 9 18 C6.77863437 22.36045847 4.56432971 25.13277421 0 27 C-4.82723092 27.53635899 -6.97890786 27.52017901 -11.3125 25.3125 C-14.79205842 22.31846136 -16.61106499 20.31003821 -17.38671875 15.703125 C-17.72146423 10.79352461 -17.35013685 7.76192878 -14.125 3.9375 C-9.85219532 -0.44883331 -5.95522598 -0.71181994 0 0 Z " fill="#F4F6F8" transform="translate(421,628)"/>
<path d="M0 0 C2 2 2 2 2 5 C2.66 5 3.32 5 4 5 C4 5.66 4 6.32 4 7 C3.38640625 7.07089844 2.7728125 7.14179688 2.140625 7.21484375 C-0.18068448 7.8150121 -0.18068448 7.8150121 -1.265625 10.06640625 C-1.75289063 11.30197266 -1.75289063 11.30197266 -2.25 12.5625 C-2.58515625 13.38878906 -2.9203125 14.21507812 -3.265625 15.06640625 C-3.50796875 15.70449219 -3.7503125 16.34257812 -4 17 C-4.99 16.67 -5.98 16.34 -7 16 C-7 16.99 -7 17.98 -7 19 C-7.66 19 -8.32 19 -9 19 C-7.39369175 14.75707468 -5.4231838 10.72974893 -3.375 6.6875 C-3.05015625 6.04232422 -2.7253125 5.39714844 -2.390625 4.73242188 C-1.59558044 3.15402459 -0.79804366 1.57688306 0 0 Z " fill="#E4E4E9" transform="translate(312,457)"/>
<path d="M0 0 C1.32 1.32 2.64 2.64 4 4 C3 7 3 7 0 9 C-0.69658363 10.65438613 -1.36096883 12.32254318 -2 14 C-3.5 16.3125 -3.5 16.3125 -5 18 C-5.66 18 -6.32 18 -7 18 C-5.06375702 11.79522136 -2.74390859 5.89174281 0 0 Z " fill="#DFE0E5" transform="translate(363,826)"/>
<path d="M0 0 C0.33 0.66 0.66 1.32 1 2 C1.66 2 2.32 2 3 2 C3.66 3.32 4.32 4.64 5 6 C4.34 6.66 3.68 7.32 3 8 C2.34 7.67 1.68 7.34 1 7 C0.5875 7.825 0.175 8.65 -0.25 9.5 C-1.11625 10.7375 -1.11625 10.7375 -2 12 C-3.32 12 -4.64 12 -6 12 C-4.02 8.04 -2.04 4.08 0 0 Z " fill="#E4E4E7" transform="translate(355,844)"/>
<path d="M0 0 C2.25245881 2.68841859 3.88213958 4.64641875 5 8 C2.69 9.32 0.38 10.64 -2 12 C-3.15957207 8.52128379 -2.77456651 7.65780355 -1.5625 4.3125 C-1.13130859 3.10013672 -1.13130859 3.10013672 -0.69140625 1.86328125 C-0.46324219 1.24839844 -0.23507812 0.63351562 0 0 Z " fill="#E6E8E7" transform="translate(660,492)"/>
<path d="M0 0 C0.66 0.99 1.32 1.98 2 3 C1.34 3.66 0.68 4.32 0 5 C-0.16677282 8.58343976 -0.16677282 8.58343976 0 12 C-1.32 12 -2.64 12 -4 12 C-6.71126384 13.42621684 -6.71126384 13.42621684 -9 15 C-7.61219205 11.10993227 -5.7847773 8.03441292 -3.375 4.6875 C-2.74335937 3.80449219 -2.11171875 2.92148437 -1.4609375 2.01171875 C-0.97882812 1.34785156 -0.49671875 0.68398438 0 0 Z " fill="#DEDFE3" transform="translate(535,307)"/>
<path d="M0 0 C2.12046792 3.53411321 2.53199289 6.94393835 3 11 C1.1875 12.5625 1.1875 12.5625 -1 14 C-1.99 13.67 -2.98 13.34 -4 13 C-3.53721939 10.84035715 -3.01661849 9.03219833 -2 7.0625 C-0.86916007 4.73014265 -0.42457928 2.54747566 0 0 Z " fill="#E5E7E6" transform="translate(597,481)"/>
<path d="M0 0 C0.99 0 1.98 0 3 0 C3.66 2.64 4.32 5.28 5 8 C6.32 7.34 7.64 6.68 9 6 C9 6.66 9 7.32 9 8 C9.66 8 10.32 8 11 8 C11 8.66 11 9.32 11 10 C10.34 10 9.68 10 9 10 C7.37485532 11.45833358 7.37485532 11.45833358 6 13 C4.1727089 10.25906335 3.06301822 7.86174676 1.875 4.8125 C1.52179687 3.91144531 1.16859375 3.01039063 0.8046875 2.08203125 C0.53914062 1.39496094 0.27359375 0.70789063 0 0 Z " fill="#EAE9EA" transform="translate(692,779)"/>
<path d="M0 0 C4.98012761 1.50912958 8.24259942 4.55661849 12 8 C11.67 8.66 11.34 9.32 11 10 C10.2575 9.690625 9.515 9.38125 8.75 9.0625 C6.49307824 8.1905075 4.3549847 7.52332993 2 7 C1.7834375 5.824375 1.7834375 5.824375 1.5625 4.625 C1.12201075 2.03578982 1.12201075 2.03578982 0 0 Z " fill="#EBE9EA" transform="translate(304,631)"/>
<path d="M0 0 C0.33 0.66 0.66 1.32 1 2 C0.06421005 4.35981813 -0.93347808 6.69631264 -2 9 C-2.99 9 -3.98 9 -5 9 C-4.649375 9.763125 -4.29875 10.52625 -3.9375 11.3125 C-3 14 -3 14 -4 17 C-6.23244396 12.66643232 -6.25804803 9.69671265 -5 5 C-2.4375 2.0625 -2.4375 2.0625 0 0 Z " fill="#D1D1D4" transform="translate(317,563)"/>
<path d="M0 0 C2.67901932 2.31881505 3.66204403 4.31814468 4.6875 7.6875 C4.93886719 8.49574219 5.19023438 9.30398438 5.44921875 10.13671875 C5.63097656 10.75160156 5.81273437 11.36648438 6 12 C5.01 11.67 4.02 11.34 3 11 C3 10.01 3 9.02 3 8 C2.34 8 1.68 8 1 8 C0.67 8.66 0.34 9.32 0 10 C-2.21538462 4.58461538 -2.21538462 4.58461538 -1.125 1.625 C-0.75375 1.08875 -0.3825 0.5525 0 0 Z " fill="#E0E2E1" transform="translate(659,816)"/>
<path d="M0 0 C0.66 0 1.32 0 2 0 C3.33951026 7.42819325 3.33951026 7.42819325 1.8125 10 C0 11 0 11 -4 11 C-3.52269162 9.5410574 -3.04308958 8.08286504 -2.5625 6.625 C-2.29566406 5.81289063 -2.02882813 5.00078125 -1.75390625 4.1640625 C-1 2 -1 2 0 0 Z " fill="#E1E2E7" transform="translate(379,789)"/>
<path d="M0 0 C0.66 0 1.32 0 2 0 C0.7874262 3.72433382 -0.50859979 7.37802806 -2 11 C-2.99 10.67 -3.98 10.34 -5 10 C-6.1875 6.4375 -6.1875 6.4375 -7 3 C-6.01 3.33 -5.02 3.66 -4 4 C-1.83284443 3.12516085 -1.83284443 3.12516085 0 2 C0 1.34 0 0.68 0 0 Z " fill="#EBEBEB" transform="translate(352,737)"/>
<path d="M0 0 C3.48872415 1.16290805 4.09976864 2.13967609 6.1875 5.0625 C6.71730469 5.79597656 7.24710937 6.52945313 7.79296875 7.28515625 C8.19128906 7.85105469 8.58960938 8.41695312 9 9 C7.68 8.67 6.36 8.34 5 8 C5 7.34 5 6.68 5 6 C4.01 6.33 3.02 6.66 2 7 C0.4375 5.75 0.4375 5.75 -1 4 C-0.6875 1.8125 -0.6875 1.8125 0 0 Z " fill="#E3E1E2" transform="translate(291,616)"/>
<path d="M0 0 C0.66 0.33 1.32 0.66 2 1 C3.65782473 6.35604911 2.39433385 9.21133231 0 14 C-2.20842803 10.68735796 -2.19725756 10.16548604 -1.6875 6.4375 C-1.58824219 5.65246094 -1.48898437 4.86742187 -1.38671875 4.05859375 C-1 2 -1 2 0 0 Z " fill="#E5E7E6" transform="translate(426,482)"/>
<path d="M0 0 C0.33 0.66 0.66 1.32 1 2 C1.66 2 2.32 2 3 2 C2.67 3.65 2.34 5.3 2 7 C1.34 7 0.68 7 0 7 C-0.33 7.66 -0.66 8.32 -1 9 C-2.66666667 9 -4.33333333 9 -6 9 C-4.02 6.03 -2.04 3.06 0 0 Z " fill="#DDDEE2" transform="translate(477,312)"/>
<path d="M0 0 C0.99 0.33 1.98 0.66 3 1 C2.01 3.31 1.02 5.62 0 8 C-0.99 8 -1.98 8 -3 8 C-3.33 6.35 -3.66 4.7 -4 3 C-2.1875 1.4375 -2.1875 1.4375 0 0 Z " fill="#E9EBEA" transform="translate(356,726)"/>
<path d="M0 0 C1 3 1 3 0.0625 5.1875 C-0.4634375 6.0846875 -0.4634375 6.0846875 -1 7 C-0.34 7 0.32 7 1 7 C1 7.66 1 8.32 1 9 C-2.465 10.485 -2.465 10.485 -6 12 C-4.68139111 7.38486888 -2.78644563 3.90102388 0 0 Z " fill="#D9D9DB" transform="translate(467,326)"/>
<path d="M0 0 C1.79398267 0.95399078 3.58511655 1.91334026 5.375 2.875 C6.37273437 3.40867187 7.37046875 3.94234375 8.3984375 4.4921875 C11 6 11 6 13 8 C11.68 8.33 10.36 8.66 9 9 C9 8.34 9 7.68 9 7 C5.37802806 5.50859979 1.72433382 4.2125738 -2 3 C-1.34 2.67 -0.68 2.34 0 2 C0 1.34 0 0.68 0 0 Z " fill="#E3E3E3" transform="translate(333,652)"/>
<path d="M0 0 C0.66 0 1.32 0 2 0 C2.99 2.31 3.98 4.62 5 7 C4.34 7.66 3.68 8.32 3 9 C2.67 8.01 2.34 7.02 2 6 C0.68 6 -0.64 6 -2 6 C-1.34 4.02 -0.68 2.04 0 0 Z " fill="#E6E6E6" transform="translate(707,445)"/>
<path d="M0 0 C3.14737182 0.69941596 6.02588876 1.76078698 9 3 C8.67 3.66 8.34 4.32 8 5 C4.7 4.34 1.4 3.68 -2 3 C-1.34 2.01 -0.68 1.02 0 0 Z " fill="#EAECEB" transform="translate(354,665)"/>
<path d="M0 0 C0.66 0 1.32 0 2 0 C3.125 1.6875 3.125 1.6875 4 4 C3.125 6.75 3.125 6.75 2 9 C1.01 8.34 0.02 7.68 -1 7 C-0.67 4.69 -0.34 2.38 0 0 Z " fill="#EBEBEB" transform="translate(362,707)"/>
<path d="M0 0 C0.33 0.66 0.66 1.32 1 2 C1.99 1.67 2.98 1.34 4 1 C4 2.65 4 4.3 4 6 C2.35 6.66 0.7 7.32 -1 8 C-1.93065133 5.39417629 -2.14917407 4.35801776 -1.0625 1.75 C-0.711875 1.1725 -0.36125 0.595 0 0 Z " fill="#DEE1E3" transform="translate(386,446)"/>
<path d="M0 0 C0.66 0.33 1.32 0.66 2 1 C1.67 3.31 1.34 5.62 1 8 C-0.32 8.33 -1.64 8.66 -3 9 C-3.75 7.3125 -3.75 7.3125 -4 5 C-2.0625 2.25 -2.0625 2.25 0 0 Z " fill="#DBDAE1" transform="translate(605,314)"/>
<path d="M0 0 C-0.33 1.98 -0.66 3.96 -1 6 C-1.99 6 -2.98 6 -4 6 C-4 4.68 -4 3.36 -4 2 C-4.66 2 -5.32 2 -6 2 C-6 1.34 -6 0.68 -6 0 C-3 -1 -3 -1 0 0 Z " fill="#E8EAE9" transform="translate(272,578)"/>
<path d="M0 0 C1.33877662 4.01632987 0.49049413 6.09632491 -1 10 C-3.125 11.4375 -3.125 11.4375 -5 12 C-3.68938409 7.76570244 -2.05643741 3.92592596 0 0 Z " fill="#DEDCE1" transform="translate(383,453)"/>
<path d="M0 0 C3.3 0.33 6.6 0.66 10 1 C10 1.33 10 1.66 10 2 C8.88625 2.12375 7.7725 2.2475 6.625 2.375 C2.96896323 2.6465813 2.96896323 2.6465813 1 5 C0.01 4.67 -0.98 4.34 -2 4 C-1.34 2.68 -0.68 1.36 0 0 Z " fill="#E8EAE9" transform="translate(450,697)"/>
<path d="M0 0 C0 0.66 0 1.32 0 2 C-0.99 2.66 -1.98 3.32 -3 4 C-3.515625 4.53625 -4.03125 5.0725 -4.5625 5.625 C-6 7 -6 7 -8 7 C-8.33 7.99 -8.66 8.98 -9 10 C-9.33 9.34 -9.66 8.68 -10 8 C-9.04578192 6.85073734 -8.08647955 5.70569459 -7.125 4.5625 C-6.59132812 3.92441406 -6.05765625 3.28632813 -5.5078125 2.62890625 C-3.68057607 0.65492285 -2.70796331 0 0 0 Z " fill="#191919" transform="translate(199,477)"/>
<path d="M0 0 C0.99 0.33 1.98 0.66 3 1 C3.36630156 4.93774177 3.30233203 6.56539771 1 9.875 C0.34 10.57625 -0.32 11.2775 -1 12 C-0.67 8.04 -0.34 4.08 0 0 Z " fill="#E0E2E1" transform="translate(593,212)"/>
<path d="M0 0 C0.33 0.66 0.66 1.32 1 2 C1.99 2.33 2.98 2.66 4 3 C4 5.31 4 7.62 4 10 C3.34 8.68 2.68 7.36 2 6 C1.01 6.495 1.01 6.495 0 7 C-1.125 2.25 -1.125 2.25 0 0 Z " fill="#D6D8D7" transform="translate(491,206)"/>
<path d="M0 0 C0.99 0.99 1.98 1.98 3 3 C2.67 3.99 2.34 4.98 2 6 C-0.5625 7.1875 -0.5625 7.1875 -3 8 C-1.125 2.25 -1.125 2.25 0 0 Z " fill="#DBDBE1" transform="translate(316,449)"/>
<path d="M0 0 C2.97 0.495 2.97 0.495 6 1 C6 2.98 6 4.96 6 7 C5.01 7.495 5.01 7.495 4 8 C2.68 5.36 1.36 2.72 0 0 Z " fill="#E7E7E7" transform="translate(616,443)"/>
<path d="M0 0 C0.66 0.66 1.32 1.32 2 2 C2.66 2 3.32 2 4 2 C4.33 1.34 4.66 0.68 5 0 C5.66 0.66 6.32 1.32 7 2 C4.64031256 4.09749995 3.45383006 4.96905704 0.25 5.1875 C-0.86375 5.0946875 -0.86375 5.0946875 -2 5 C-1.125 1.125 -1.125 1.125 0 0 Z " fill="#E9EBEA" transform="translate(563,369)"/>
<path d="M0 0 C1.32 0.33 2.64 0.66 4 1 C3.01 2.98 2.02 4.96 1 7 C0.01 6.01 -0.98 5.02 -2 4 C-1.34 2.68 -0.68 1.36 0 0 Z " fill="#E7E7E7" transform="translate(389,473)"/>
<path d="M0 0 C0.66 0 1.32 0 2 0 C2.66 2.31 3.32 4.62 4 7 C3.34 7.66 2.68 8.32 2 9 C1.01 6.36 0.02 3.72 -1 1 C-0.67 0.67 -0.34 0.34 0 0 Z " fill="#DFDEDF" transform="translate(643,779)"/>
<path d="M0 0 C1.65 1.65 3.3 3.3 5 5 C4.34 5.66 3.68 6.32 3 7 C3 6.34 3 5.68 3 5 C2.01 5.33 1.02 5.66 0 6 C-0.38218767 4.34385343 -0.71395102 2.67542976 -1 1 C-0.67 0.67 -0.34 0.34 0 0 Z " fill="#09090B" transform="translate(330,604)"/>
<path d="M0 0 C0.66 0 1.32 0 2 0 C1.67 2.64 1.34 5.28 1 8 C-0.32 8 -1.64 8 -3 8 C-1.125 2.25 -1.125 2.25 0 0 Z " fill="#EBEBEB" transform="translate(428,315)"/>
<path d="M0 0 C0 0.99 0 1.98 0 3 C-1.98 3 -3.96 3 -6 3 C-6 2.01 -6 1.02 -6 0 C-3.50907189 -1.24546405 -2.58919267 -0.7767578 0 0 Z " fill="#E7E7ED" transform="translate(543,305)"/>
<path d="M0 0 C2.5654594 2.5654594 2.54046087 4.47686668 3 8 C2.01 8.33 1.02 8.66 0 9 C-0.66 6.69 -1.32 4.38 -2 2 C-1.34 2 -0.68 2 0 2 C0 1.34 0 0.68 0 0 Z " fill="#E9E7E8" transform="translate(684,753)"/>
<path d="M0 0 C0.66 0 1.32 0 2 0 C2.625 2.375 2.625 2.375 3 5 C2.34 5.66 1.68 6.32 1 7 C0.34 7 -0.32 7 -1 7 C-0.67 4.69 -0.34 2.38 0 0 Z " fill="#E5E7E6" transform="translate(586,447)"/>
<path d="M0 0 C2.475 0.495 2.475 0.495 5 1 C4.34 2.32 3.68 3.64 3 5 C2.01 5 1.02 5 0 5 C0 3.35 0 1.7 0 0 Z " fill="#E5E5E5" transform="translate(554,317)"/>
<path d="M0 0 C0.99 0.66 1.98 1.32 3 2 C1.35 4.31 -0.3 6.62 -2 9 C-3 6 -3 6 -1.5625 2.8125 C-1.046875 1.884375 -0.53125 0.95625 0 0 Z " fill="#0F1013" transform="translate(533,305)"/>
<path d="M0 0 C0.66 0.66 1.32 1.32 2 2 C2.66 1.67 3.32 1.34 4 1 C3.67 2.65 3.34 4.3 3 6 C1.68 6.33 0.36 6.66 -1 7 C-0.67 4.69 -0.34 2.38 0 0 Z " fill="#D5D6D7" transform="translate(610,299)"/>
<path d="M0 0 C0.66 0.33 1.32 0.66 2 1 C1.67 2.65 1.34 4.3 1 6 C0.67 5.34 0.34 4.68 0 4 C-0.99 4.33 -1.98 4.66 -3 5 C-3.66 4.34 -4.32 3.68 -5 3 C-2.625 1.4375 -2.625 1.4375 0 0 Z " fill="#D1D8D8" transform="translate(709,858)"/>
<path d="M0 0 C1.98 0.495 1.98 0.495 4 1 C3.01 2.98 2.02 4.96 1 7 C-0.0625 5.1875 -0.0625 5.1875 -1 3 C-0.67 2.01 -0.34 1.02 0 0 Z " fill="#E9E7E8" transform="translate(315,481)"/>
<path d="M0 0 C0.66 0 1.32 0 2 0 C3.2890625 1.53125 3.2890625 1.53125 4.625 3.5 C5.07101562 4.1496875 5.51703125 4.799375 5.9765625 5.46875 C6.31429687 5.9740625 6.65203125 6.479375 7 7 C6.34 7.66 5.68 8.32 5 9 C3.35 6.03 1.7 3.06 0 0 Z " fill="#E3E2E2" transform="translate(695,461)"/>
<path d="M0 0 C0.66 0.33 1.32 0.66 2 1 C0.875 3.4375 0.875 3.4375 -1 6 C-4.1875 6.8125 -4.1875 6.8125 -7 7 C-4.66666667 4.66666667 -2.33333333 2.33333333 0 0 Z " fill="#DBDDDC" transform="translate(525,353)"/>
<path d="M0 0 C0.66 0.33 1.32 0.66 2 1 C2 2.98 2 4.96 2 7 C0.68 7 -0.64 7 -2 7 C-1.34 4.69 -0.68 2.38 0 0 Z " fill="#E2E2E4" transform="translate(405,726)"/>
<path d="M0 0 C0.66 1.32 1.32 2.64 2 4 C1.34 4.66 0.68 5.32 0 6 C0 5.34 0 4.68 0 4 C-1.65 4 -3.3 4 -5 4 C-3.35 2.68 -1.7 1.36 0 0 Z " fill="#DFE0DF" transform="translate(699,649)"/>
<path d="M0 0 C0.99 0.33 1.98 0.66 3 1 C2.34 2.32 1.68 3.64 1 5 C0.01 5 -0.98 5 -2 5 C-1.34 3.35 -0.68 1.7 0 0 Z " fill="#E9E8E8" transform="translate(292,397)"/>
<path d="M0 0 C0.66 0 1.32 0 2 0 C2.25 2.25 2.25 2.25 2 5 C0 7.3125 0 7.3125 -2 9 C-1.34 6.03 -0.68 3.06 0 0 Z " fill="#DBDCDC" transform="translate(481,301)"/>
</svg>
